<svg width="10" height="18" viewBox="0 0 10 18" fill="none" xmlns="http://www.w3.org/2000/svg">
<path d="M9.32732 0.0037452L7.00258 0C4.39081 0 2.70297 1.73871 2.70297 4.42982V6.47227H0.365544C0.163562 6.47227 0 6.63668 0 6.83949V9.79876C0 10.0016 0.163749 10.1658 0.365544 10.1658H2.70297V17.633C2.70297 17.8358 2.86653 18 3.06851 18H6.11819C6.32017 18 6.48373 17.8356 6.48373 17.633V10.1658H9.21673C9.41871 10.1658 9.58227 10.0016 9.58227 9.79876L9.58339 6.83949C9.58339 6.74211 9.54479 6.64886 9.47634 6.57994C9.40789 6.51103 9.31464 6.47227 9.21766 6.47227H6.48373V4.74086C6.48373 3.90868 6.68124 3.48622 7.7609 3.48622L9.32695 3.48566C9.52875 3.48566 9.69231 3.32124 9.69231 3.11863V0.370775C9.69231 0.168347 9.52893 0.00411972 9.32732 0.0037452Z" fill="#3B5998"/>
</svg>
